<svg width="29" height="42" viewBox="0 0 29 42" fill="none" xmlns="http://www.w3.org/2000/svg">
<g id="Group 1000010013">
<g id="Vector">
<path d="M14.4999 29.0762C16.7154 29.0762 18.6114 28.2853 20.1888 26.7043C21.766 25.1233 22.5547 23.2212 22.5547 21V8.07714C22.5547 5.85587 21.7666 3.95463 20.1888 2.3728C18.6114 0.791315 16.7154 0 14.4999 0C12.2846 0 10.3883 0.791315 8.8108 2.3728C7.23318 3.95437 6.4445 5.85587 6.4445 8.07714V21C6.4445 23.2211 7.23354 25.1233 8.8108 26.7043C10.3881 28.2853 12.2846 29.0762 14.4999 29.0762Z" fill="url(#paint0_linear_1232_11567)"/>
<path d="M28.5208 16.6334C28.2029 16.3137 27.8244 16.1538 27.3881 16.1538C26.9522 16.1538 26.5746 16.3137 26.2554 16.6334C25.9368 16.9531 25.7774 17.3317 25.7774 17.769V21C25.7774 24.1131 24.6737 26.7757 22.4668 28.9884C20.2606 31.2012 17.6047 32.3076 14.4998 32.3076C11.395 32.3076 8.7393 31.2012 6.53232 28.9884C4.32561 26.7764 3.22234 24.1131 3.22234 21V17.769C3.22234 17.3317 3.06284 16.9531 2.74411 16.6334C2.4252 16.3137 2.04801 16.1538 1.61139 16.1538C1.17477 16.1538 0.797143 16.3137 0.478409 16.6334C0.159411 16.9531 0 17.3317 0 17.769V21C0 24.7187 1.2379 27.9538 3.713 30.7047C6.18819 33.4557 9.24671 35.0331 12.8887 35.4367V38.7688H6.44442C6.00806 38.7688 5.63052 38.9289 5.3117 39.2487C4.99279 39.5682 4.83329 39.9469 4.83329 40.3844C4.83329 40.8212 4.99279 41.2006 5.3117 41.5201C5.63052 41.8396 6.00806 42 6.44442 42H22.5547C22.991 42 23.369 41.8397 23.6874 41.5201C24.0067 41.2007 24.1663 40.8213 24.1663 40.3844C24.1663 39.947 24.0067 39.5682 23.6874 39.2487C23.3691 38.9289 22.9911 38.7688 22.5547 38.7688H16.1113V35.4367C19.7526 35.0331 22.8108 33.4557 25.2863 30.7047C27.7617 27.9538 29 24.7187 29 21V17.769C29 17.3318 28.8401 16.9535 28.5208 16.6334Z" fill="url(#paint1_linear_1232_11567)"/>
</g>
</g>
<defs>
<linearGradient id="paint0_linear_1232_11567" x1="14.5" y1="16.1537" x2="14.7492" y2="43.4172" gradientUnits="userSpaceOnUse">
<stop stop-color="#299BDB"/>
<stop offset="1" stop-color="#6CD9D6"/>
</linearGradient>
<linearGradient id="paint1_linear_1232_11567" x1="14.5" y1="16.1537" x2="14.7492" y2="43.4172" gradientUnits="userSpaceOnUse">
<stop stop-color="#299BDB"/>
<stop offset="1" stop-color="#6CD9D6"/>
</linearGradient>
</defs>
</svg>
